<?xml version="1.0" encoding="UTF-8"?>
<svg id="Layer_1" data-name="Layer 1" xmlns="http://www.w3.org/2000/svg" viewBox="0 0 1000 500">
  <path d="M55.61,148.35c24.69-14.63,54.53-19.21,82.77-15.25,15.31,2.37,30.61,6.86,43.85,15.07,1.48,5.7.93,11.89,1.43,17.8.59,8.49,1.23,16.99,1.41,25.51-28.06-27.18-74.35-33.76-108.38-14.17-19.6,11.22-33.48,31.49-37.31,53.7-3.18,18.96-.82,39.26,8.77,56.14,10.01,18.57,27.99,32.56,48.41,37.8,31.21,7.68,66.22,1.17,91.36-19.26-1.04,12.23-2.33,24.42-3.61,36.62-.4,1.75,0,4.4-2.16,5.14-21.4,11.05-45.79,16.26-69.83,14.84-23.16-.83-46.23-8.34-64.92-22.16-21.45-15.54-37.22-38.75-43.7-64.43-6.39-24.98-4.55-52.21,6.24-75.72,9.39-21.37,25.47-39.84,45.67-51.62h.01Z" fill="#fff"/>
  <path d="M543.35,136.9c29.64-.01,59.3.04,88.97.14,19.37.14,40.15,4.76,54.53,18.57,13.59,13.23,17.41,33.82,13.99,51.95-2.52,15.07-12.26,28.66-25.74,35.86,10.19,4.84,19.86,11.67,25.63,21.6,7.64,13.11,8.4,28.95,6.72,43.68-1.81,16.09-11.28,31.25-25.4,39.36-12.53,7.76-27.38,10.57-41.94,10.83-32.16.01-64.34-.2-96.5-.42-.48-71.92-.31-143.86-.62-215.79.18-1.9-.59-4.07.36-5.78h0ZM580.7,168.81c0,20.32.17,40.65-.01,60.95,17.65.03,35.31.04,52.97-.12,12.53-.22,25.57-7.5,29.75-19.79,3.49-10.8,2.26-24.16-6.21-32.39-6.55-6.5-16.17-7.96-24.99-8.43-17.17-.14-34.34-.09-51.5-.22h0ZM580.89,261.73c.61,21.47.46,42.97.56,64.44,18.65-.25,37.31-.01,55.96-.26,8.1.08,16.36-2.2,22.81-7.25,12.13-9.13,13.97-27.24,7.68-40.29-5.77-10.91-18.45-16.66-30.45-16.53-18.85-.27-37.71.09-56.55-.1h0Z" fill="#fff"/>
  <path d="M920.11,156.43c12.56.07,25.12.05,37.69.04v39.43c14.07-.04,28.13,0,42.2-.01-.79,10.13-.43,20.32-1.32,30.45l-.68.36c-13.41-.07-26.81.1-40.2-.1.07,27.78-.13,55.56-.01,83.33.07,7.63,3.98,15.93,11.48,18.76,9.52,3.48,19.94,1.04,29.15-2.3-.88,10.88-.29,21.81.17,32.69-13.32,2.62-27.11,4.06-40.58,1.87-13.42-2.22-25.91-10.58-31.97-22.92-5.9-10.98-6.16-23.74-5.85-35.9v-75.41c-7.33.09-14.65.04-21.97.16-.08-10.33-.29-20.67-.59-31.01,7.52,0,15.04-.01,22.56,0-.04-13.15.08-26.3-.08-39.45h0Z" fill="#fff"/>
  <path d="M226.81,208.12c13.36-8.91,28.95-14.12,44.88-15.78,22.23-1.66,47.11.1,64.65,15.52,12.71,10.56,17.67,27.52,17.95,43.53.62,35.69-.12,71.39.46,107.08-12.72.03-25.44-.08-38.18.01.1-4.62.2-9.21.22-13.81-8.2,7.21-17.77,13.06-28.48,15.61-15.25,3.72-31.46,3.32-46.6-.78-12.18-3.28-23.51-10.85-29.83-21.94-7.82-14.1-8.46-32.28-.72-46.55,5.38-10.37,15.22-17.71,25.73-22.36,11.68-5.42,24.69-7.04,37.45-7.21,14.15-.05,28.3-.03,42.45-.05-.53-8.83-.27-18.4-5.4-26.07-6.24-9.71-18.22-13.97-29.34-14.23-20.88-.43-40.5,9.4-56.38,22.31,1.01-11.74.33-23.54,1.12-35.29h0ZM252.49,293.4c-9.27,7.54-10.29,22.82-2.46,31.75,3.87,4.49,9.6,6.99,15.33,8.09,10.14,1.41,20.95,1.04,30.36-3.37,9.39-4.41,16.75-12.86,20.05-22.67,1.51-7.16.74-14.56,1.23-21.83-13.37-.01-26.74-.05-40.11.01-8.57.49-17.6,2.44-24.39,8.01h0Z" fill="#fff"/>
  <path d="M792.6,193.1c21.38-3.42,44.39-.33,62.87,11.45,15.07,9.31,26,24.33,32.03,40.84,7.52,20.8,7.02,44.26-.74,64.94-6.95,18.43-20.72,34.3-38.39,43.14-15.87,8.12-34.26,10.74-51.87,8.55-20.2-2.03-39.47-12.16-52.37-27.88-26.59-31.8-26.56-82.64.55-114.12,11.94-14.49,29.45-23.96,47.92-26.9h0ZM801.6,225.25c-17.44,1.77-32.54,14.94-37.33,31.71-4.36,13.61-3.89,28.69.91,42.13,3.89,10.92,11.62,20.74,22.19,25.83,14.63,7.01,33.03,6.46,46.68-2.62,16.94-11.17,23.24-33.07,21.5-52.45-1.05-13.23-6.68-26.51-17.01-35.12-10.09-8.47-24.09-11.6-36.95-9.49h0Z" fill="#b9c85a"/>
  <path d="M357.95,195.85c13.55-.09,27.11.27,40.65.38,14.32,37.54,28.26,75.24,42.68,112.75,1.11,2.66,1.6,5.67,3.51,7.91,14.49-40.28,28.83-80.63,44.06-120.63,13.49-.55,26.99-.26,40.48-.46-21.47,53.27-42.71,106.66-63.79,160.08-.38.69-1.14,2.03-1.51,2.71-13.44.2-26.91.14-40.35-.42-22-54.06-43.67-108.26-65.73-162.32h0Z" fill="#fff"/>
</svg>